<?xml version="1.0" encoding="UTF-8" standalone="no"?>
<!-- Created with Inkscape (http://www.inkscape.org/) -->

<svg
   xmlns:dc="http://purl.org/dc/elements/1.1/"
   xmlns:cc="http://creativecommons.org/ns#"
   xmlns:rdf="http://www.w3.org/1999/02/22-rdf-syntax-ns#"
   xmlns:svg="http://www.w3.org/2000/svg"
   xmlns="http://www.w3.org/2000/svg"
   xmlns:sodipodi="http://sodipodi.sourceforge.net/DTD/sodipodi-0.dtd"
   xmlns:inkscape="http://www.inkscape.org/namespaces/inkscape"
   width="744.09448819"
   height="1052.3622047"
   id="svg2"
   version="1.1"
   inkscape:version="0.48.5 r10040"
   sodipodi:docname="squares.svg">
  <defs
     id="defs4" />
  <sodipodi:namedview
     id="base"
     pagecolor="#ffffff"
     bordercolor="#666666"
     borderopacity="1.0"
     inkscape:pageopacity="0.0"
     inkscape:pageshadow="2"
     inkscape:zoom="3.959798"
     inkscape:cx="270.79613"
     inkscape:cy="539.55278"
     inkscape:document-units="px"
     inkscape:current-layer="layer1"
     showgrid="false"
     inkscape:window-width="1280"
     inkscape:window-height="748"
     inkscape:window-x="-8"
     inkscape:window-y="22"
     inkscape:window-maximized="1">
    <inkscape:grid
       type="xygrid"
       id="grid2985" />
  </sodipodi:namedview>
  <metadata
     id="metadata7">
    <rdf:RDF>
      <cc:Work
         rdf:about="">
        <dc:format>image/svg+xml</dc:format>
        <dc:type
           rdf:resource="http://purl.org/dc/dcmitype/StillImage" />
        <dc:title></dc:title>
      </cc:Work>
    </rdf:RDF>
  </metadata>
  <g
     inkscape:label="Layer 1"
     inkscape:groupmode="layer"
     id="layer1">
    <g
       transform="matrix(0.30864197,0,0,0.30864197,188.58025,318.48497)"
       id="g3066"
       style="fill:#87aade"
       inkscape:export-filename="C:\Users\Andreas\Documents\Visual Studio 2013\Projects\Battleship\Battleship\images\miss.png"
       inkscape:export-xdpi="90"
       inkscape:export-ydpi="90">
      <rect
         style="fill:#87aade;stroke:#000000"
         id="rect3068"
         width="80"
         height="80"
         x="280"
         y="482.36218" />
      <path
         transform="matrix(1.0996066,0,0,1.0996066,-31.874113,-52.03072)"
         sodipodi:type="arc"
         style="fill:#5f8dd3;stroke:#5f8dd3"
         id="path3070"
         sodipodi:cx="320"
         sodipodi:cy="522.36218"
         sodipodi:rx="35.355339"
         sodipodi:ry="35.355339"
         d="m 355.35534,522.36218 c 0,19.52622 -15.82913,35.35534 -35.35534,35.35534 -19.52621,0 -35.35534,-15.82912 -35.35534,-35.35534 0,-19.52621 15.82913,-35.35534 35.35534,-35.35534 19.52621,0 35.35534,15.82913 35.35534,35.35534 z" />
      <path
         d="m 344.96201,522.36218 c 0,13.78614 -11.17587,24.96201 -24.96201,24.96201 -13.78614,0 -24.96201,-11.17587 -24.96201,-24.96201 0,-13.78614 11.17587,-24.96201 24.96201,-24.96201 13.78614,0 24.96201,11.17587 24.96201,24.96201 z"
         sodipodi:ry="24.962011"
         sodipodi:rx="24.962011"
         sodipodi:cy="522.36218"
         sodipodi:cx="320"
         id="path3072"
         style="fill:#2c5aa0;stroke:#2c5aa0"
         sodipodi:type="arc"
         transform="matrix(1.0996066,0,0,1.0996066,-31.874113,-52.03072)" />
      <path
         transform="matrix(1.0996066,0,0,1.0996066,-31.874113,-52.03072)"
         sodipodi:type="arc"
         style="fill:#162d50;stroke:#162d50"
         id="path3074"
         sodipodi:cx="320"
         sodipodi:cy="522.36218"
         sodipodi:rx="13.59431"
         sodipodi:ry="13.59431"
         d="m 333.59431,522.36218 c 0,7.50793 -6.08638,13.59431 -13.59431,13.59431 -7.50793,0 -13.59431,-6.08638 -13.59431,-13.59431 0,-7.50793 6.08638,-13.59431 13.59431,-13.59431 7.50793,0 13.59431,6.08638 13.59431,13.59431 z" />
      <path
         d="m 323.20098,522.36218 c 0,1.76786 -1.43313,3.20098 -3.20098,3.20098 -1.76785,0 -3.20098,-1.43312 -3.20098,-3.20098 0,-1.76785 1.43313,-3.20098 3.20098,-3.20098 1.76785,0 3.20098,1.43313 3.20098,3.20098 z"
         sodipodi:ry="3.2009823"
         sodipodi:rx="3.2009823"
         sodipodi:cy="522.36218"
         sodipodi:cx="320"
         id="path3076"
         style="fill:#000000;stroke:#000000"
         sodipodi:type="arc"
         transform="matrix(1.0996066,0,0,1.0996066,-31.874113,-52.03072)" />
    </g>
    <g
       id="g3043"
       transform="matrix(0.30864197,0,0,0.30864197,128.58025,318.48497)"
       inkscape:export-filename="C:\Users\Andreas\Documents\Visual Studio 2013\Projects\Battleship\Battleship\images\ship.png"
       inkscape:export-xdpi="90"
       inkscape:export-ydpi="90">
      <rect
         y="482.36218"
         x="280"
         height="80"
         width="80"
         id="rect2989"
         style="fill:#cccccc;stroke:#000000" />
      <path
         d="m 355.35534,522.36218 c 0,19.52622 -15.82913,35.35534 -35.35534,35.35534 -19.52621,0 -35.35534,-15.82912 -35.35534,-35.35534 0,-19.52621 15.82913,-35.35534 35.35534,-35.35534 19.52621,0 35.35534,15.82913 35.35534,35.35534 z"
         sodipodi:ry="35.355339"
         sodipodi:rx="35.355339"
         sodipodi:cy="522.36218"
         sodipodi:cx="320"
         id="path2991"
         style="fill:#4d4d4d;stroke:#000000"
         sodipodi:type="arc"
         transform="matrix(0.80078679,0,0,0.80078679,63.748227,104.06145)" />
      <path
         transform="matrix(0.52793936,0,0,0.52793936,151.05941,246.58663)"
         sodipodi:type="arc"
         style="fill:#1a1a1a;stroke:#000000"
         id="path3851"
         sodipodi:cx="320"
         sodipodi:cy="522.36218"
         sodipodi:rx="35.355339"
         sodipodi:ry="35.355339"
         d="m 355.35534,522.36218 c 0,19.52622 -15.82913,35.35534 -35.35534,35.35534 -19.52621,0 -35.35534,-15.82912 -35.35534,-35.35534 0,-19.52621 15.82913,-35.35534 35.35534,-35.35534 19.52621,0 35.35534,15.82913 35.35534,35.35534 z" />
    </g>
    <g
       id="g3113"
       transform="matrix(0.30864197,0,0,0.30864197,95.714287,345.38091)"
       inkscape:export-filename="C:\Users\Andreas\Documents\Visual Studio 2013\Projects\Battleship\Battleship\hit.png"
       inkscape:export-xdpi="90"
       inkscape:export-ydpi="90">
      <g
         id="g3101"
         transform="translate(9.2857145,-87.142857)">
        <rect
           y="482.36218"
           x="280"
           height="80"
           width="80"
           id="rect3103"
           style="fill:#cccccc;stroke:#000000" />
        <path
           d="m 355.35534,522.36218 c 0,19.52622 -15.82913,35.35534 -35.35534,35.35534 -19.52621,0 -35.35534,-15.82912 -35.35534,-35.35534 0,-19.52621 15.82913,-35.35534 35.35534,-35.35534 19.52621,0 35.35534,15.82913 35.35534,35.35534 z"
           sodipodi:ry="35.355339"
           sodipodi:rx="35.355339"
           sodipodi:cy="522.36218"
           sodipodi:cx="320"
           id="path3105"
           style="fill:#4d4d4d;stroke:#000000"
           sodipodi:type="arc"
           transform="matrix(0.80078679,0,0,0.80078679,63.748227,104.06145)" />
      </g>
      <g
         transform="matrix(1.0407622,-0.16478454,0.16478454,1.0407622,80.267368,-55.207065)"
         id="g3107">
        <path
           sodipodi:type="star"
           style="fill:#ff0000;stroke:#ff0000"
           id="path3109"
           sodipodi:sides="5"
           sodipodi:cx="210"
           sodipodi:cy="480.93362"
           sodipodi:r1="41.701687"
           sodipodi:r2="20.850843"
           sodipodi:arg1="0.5903779"
           sodipodi:arg2="1.2186964"
           inkscape:flatsided="false"
           inkscape:rounded="0"
           inkscape:randomized="0"
           d="m 244.64286,504.14791 -27.45204,-3.64263 -18.56369,20.54927 -5.01879,-27.23407 -25.28002,-11.30505 24.35025,-13.18895 2.93978,-27.53617 20.06808,19.08285 27.0969,-5.71324 -11.94749,24.9828 z"
           transform="matrix(0.91100822,0,0,0.91100822,-28.993231,56.414066)"
           inkscape:transform-center-x="3.2016558"
           inkscape:transform-center-y="0.44530432" />
        <path
           inkscape:transform-center-y="0.28633945"
           inkscape:transform-center-x="2.0587591"
           transform="matrix(0.58580497,0,0,0.58580497,39.299451,212.81524)"
           d="m 244.64286,504.14791 -27.45204,-3.64263 -18.56369,20.54927 -5.01879,-27.23407 -25.28002,-11.30505 24.35025,-13.18895 2.93978,-27.53617 20.06808,19.08285 27.0969,-5.71324 -11.94749,24.9828 z"
           inkscape:randomized="0"
           inkscape:rounded="0"
           inkscape:flatsided="false"
           sodipodi:arg2="1.2186964"
           sodipodi:arg1="0.5903779"
           sodipodi:r2="20.850843"
           sodipodi:r1="41.701687"
           sodipodi:cy="480.93362"
           sodipodi:cx="210"
           sodipodi:sides="5"
           id="path3111"
           style="fill:#ffff00;stroke:#ff0000"
           sodipodi:type="star" />
      </g>
    </g>
    <g
       id="g3146"
       transform="matrix(0.30864197,0,0,0.30864197,95.088183,345.16045)"
       inkscape:export-filename="C:\Users\Andreas\Documents\Visual Studio 2013\Projects\Battleship\Battleship\water.png"
       inkscape:export-xdpi="90"
       inkscape:export-ydpi="90">
      <rect
         y="395.93362"
         x="485.71429"
         height="80"
         width="80"
         id="rect3123"
         style="fill:#87aade;stroke:#000000" />
      <path
         sodipodi:nodetypes="ccc"
         inkscape:connector-curvature="0"
         id="path3138"
         d="m 489.64287,413.07648 c 23.47109,20.92118 51.97438,-24.00666 72.14285,0 l 0,0.35714"
         style="fill:none;stroke:#000000;stroke-width:1px;stroke-linecap:butt;stroke-linejoin:miter;stroke-opacity:1" />
      <path
         style="fill:none;stroke:#000000;stroke-width:1px;stroke-linecap:butt;stroke-linejoin:miter;stroke-opacity:1"
         d="m 489.64287,429.07648 c 23.47109,20.92118 51.97438,-24.00666 72.14285,0 l 0,0.35714"
         id="path3140"
         inkscape:connector-curvature="0"
         sodipodi:nodetypes="ccc" />
      <path
         sodipodi:nodetypes="ccc"
         inkscape:connector-curvature="0"
         id="path3142"
         d="m 489.64287,445.07648 c 23.47109,20.92118 51.97438,-24.00666 72.14285,0 l 0,0.35714"
         style="fill:none;stroke:#000000;stroke-width:1px;stroke-linecap:butt;stroke-linejoin:miter;stroke-opacity:1" />
      <path
         style="fill:none;stroke:#000000;stroke-width:1px;stroke-linecap:butt;stroke-linejoin:miter;stroke-opacity:1"
         d="m 489.64287,461.07648 c 23.47109,20.92118 51.97438,-24.00666 72.14285,0 l 0,0.35714"
         id="path3144"
         inkscape:connector-curvature="0"
         sodipodi:nodetypes="ccc" />
    </g>
    <g
       transform="matrix(0.30864197,0,0,0.30864197,155.08818,345.16045)"
       id="g3153"
       inkscape:export-filename="C:\Users\Andreas\Documents\Visual Studio 2013\Projects\Battleship\Battleship\images\forbidden.png"
       inkscape:export-xdpi="90"
       inkscape:export-ydpi="90">
      <rect
         style="fill:#87aade;stroke:#000000"
         id="rect3155"
         width="80"
         height="80"
         x="485.71429"
         y="395.93362" />
      <g
         id="g3045"
         style="stroke:#ff0000;stroke-width:1.64916003;stroke-linecap:round;stroke-miterlimit:4;stroke-dasharray:none">
        <path
           sodipodi:nodetypes="ccc"
           inkscape:connector-curvature="0"
           id="path3157"
           d="m 489.64287,413.07648 c 23.47109,20.92118 51.97438,-24.00666 72.14285,0 l 0,0.35714"
           style="fill:none;stroke:#ff0000;stroke-width:1.64916003;stroke-linecap:round;stroke-linejoin:miter;stroke-miterlimit:4;stroke-opacity:1;stroke-dasharray:none" />
        <path
           style="fill:none;stroke:#ff0000;stroke-width:1.64916003;stroke-linecap:round;stroke-linejoin:miter;stroke-miterlimit:4;stroke-opacity:1;stroke-dasharray:none"
           d="m 489.64287,429.07648 c 23.47109,20.92118 51.97438,-24.00666 72.14285,0 l 0,0.35714"
           id="path3159"
           inkscape:connector-curvature="0"
           sodipodi:nodetypes="ccc" />
        <path
           sodipodi:nodetypes="ccc"
           inkscape:connector-curvature="0"
           id="path3161"
           d="m 489.64287,445.07648 c 23.47109,20.92118 51.97438,-24.00666 72.14285,0 l 0,0.35714"
           style="fill:none;stroke:#ff0000;stroke-width:1.64916003;stroke-linecap:round;stroke-linejoin:miter;stroke-miterlimit:4;stroke-opacity:1;stroke-dasharray:none" />
        <path
           style="fill:none;stroke:#ff0000;stroke-width:1.64916003;stroke-linecap:round;stroke-linejoin:miter;stroke-miterlimit:4;stroke-opacity:1;stroke-dasharray:none"
           d="m 489.64287,461.07648 c 23.47109,20.92118 51.97438,-24.00666 72.14285,0 l 0,0.35714"
           id="path3163"
           inkscape:connector-curvature="0"
           sodipodi:nodetypes="ccc" />
      </g>
    </g>
    <g
       inkscape:export-ydpi="90"
       inkscape:export-xdpi="90"
       inkscape:export-filename="C:\Users\Andreas\Documents\Visual Studio 2013\Projects\Battleship\Battleship\images\sunk.png"
       transform="matrix(0.30864197,0,0,0.30864197,215.71429,375.38091)"
       id="g3079">
      <g
         transform="translate(9.2857145,-87.142857)"
         id="g3081"
         style="fill:#214478;fill-opacity:1">
        <rect
           style="fill:#214478;fill-opacity:1;stroke:#000000"
           id="rect3083"
           width="80"
           height="80"
           x="280"
           y="482.36218" />
        <path
           transform="matrix(0.80078679,0,0,0.80078679,63.748227,104.06145)"
           sodipodi:type="arc"
           style="fill:#3771c8;fill-opacity:1;stroke:#000000"
           id="path3085"
           sodipodi:cx="320"
           sodipodi:cy="522.36218"
           sodipodi:rx="35.355339"
           sodipodi:ry="35.355339"
           d="m 355.35534,522.36218 c 0,19.52622 -15.82913,35.35534 -35.35534,35.35534 -19.52621,0 -35.35534,-15.82912 -35.35534,-35.35534 0,-19.52621 15.82913,-35.35534 35.35534,-35.35534 19.52621,0 35.35534,15.82913 35.35534,35.35534 z" />
      </g>
      <g
         id="g3087"
         transform="matrix(1.0407622,-0.16478454,0.16478454,1.0407622,80.267368,-55.207065)"
         style="fill:#4d4d4d;fill-opacity:1;stroke:#4d4d4d;stroke-opacity:1">
        <path
           inkscape:transform-center-y="0.44530432"
           inkscape:transform-center-x="3.2016558"
           transform="matrix(0.91100822,0,0,0.91100822,-28.993231,56.414066)"
           d="m 244.64286,504.14791 -27.45204,-3.64263 -18.56369,20.54927 -5.01879,-27.23407 -25.28002,-11.30505 24.35025,-13.18895 2.93978,-27.53617 20.06808,19.08285 27.0969,-5.71324 -11.94749,24.9828 z"
           inkscape:randomized="0"
           inkscape:rounded="0"
           inkscape:flatsided="false"
           sodipodi:arg2="1.2186964"
           sodipodi:arg1="0.5903779"
           sodipodi:r2="20.850843"
           sodipodi:r1="41.701687"
           sodipodi:cy="480.93362"
           sodipodi:cx="210"
           sodipodi:sides="5"
           id="path3089"
           style="fill:#4d4d4d;fill-opacity:1;stroke:#4d4d4d;stroke-opacity:1"
           sodipodi:type="star" />
        <path
           sodipodi:type="star"
           style="fill:#1a1a1a;fill-opacity:1;stroke:#1a1a1a;stroke-opacity:1"
           id="path3091"
           sodipodi:sides="5"
           sodipodi:cx="210"
           sodipodi:cy="480.93362"
           sodipodi:r1="41.701687"
           sodipodi:r2="20.850843"
           sodipodi:arg1="0.5903779"
           sodipodi:arg2="1.2186964"
           inkscape:flatsided="false"
           inkscape:rounded="0"
           inkscape:randomized="0"
           d="m 244.64286,504.14791 -27.45204,-3.64263 -18.56369,20.54927 -5.01879,-27.23407 -25.28002,-11.30505 24.35025,-13.18895 2.93978,-27.53617 20.06808,19.08285 27.0969,-5.71324 -11.94749,24.9828 z"
           transform="matrix(0.58580497,0,0,0.58580497,39.299451,212.81524)"
           inkscape:transform-center-x="2.0587591"
           inkscape:transform-center-y="0.28633945" />
      </g>
    </g>
    <g
       id="g3863"
       inkscape:export-filename="C:\Users\Andreas\Documents\Visual Studio 2013\Projects\Battleship\Battleship\images\down.png"
       inkscape:export-xdpi="90"
       inkscape:export-ydpi="90">
      <g
         id="g3067"
         transform="matrix(0.30864197,0,0,0.30864197,35.088183,375.16045)"
         inkscape:export-filename="C:\Users\Andreas\Documents\Visual Studio 2013\Projects\Battleship\Battleship\water.png"
         inkscape:export-xdpi="90"
         inkscape:export-ydpi="90">
        <rect
           y="395.93362"
           x="485.71429"
           height="80"
           width="80"
           id="rect3069"
           style="fill:#87aade;stroke:#000000" />
        <path
           sodipodi:nodetypes="ccc"
           inkscape:connector-curvature="0"
           id="path3071"
           d="m 489.64287,413.07648 c 23.47109,20.92118 51.97438,-24.00666 72.14285,0 l 0,0.35714"
           style="fill:none;stroke:#000000;stroke-width:1px;stroke-linecap:butt;stroke-linejoin:miter;stroke-opacity:1" />
        <path
           style="fill:none;stroke:#000000;stroke-width:1px;stroke-linecap:butt;stroke-linejoin:miter;stroke-opacity:1"
           d="m 489.64287,429.07648 c 23.47109,20.92118 51.97438,-24.00666 72.14285,0 l 0,0.35714"
           id="path3073"
           inkscape:connector-curvature="0"
           sodipodi:nodetypes="ccc" />
        <path
           sodipodi:nodetypes="ccc"
           inkscape:connector-curvature="0"
           id="path3075"
           d="m 489.64287,445.07648 c 23.47109,20.92118 51.97438,-24.00666 72.14285,0 l 0,0.35714"
           style="fill:none;stroke:#000000;stroke-width:1px;stroke-linecap:butt;stroke-linejoin:miter;stroke-opacity:1" />
        <path
           style="fill:none;stroke:#000000;stroke-width:1px;stroke-linecap:butt;stroke-linejoin:miter;stroke-opacity:1"
           d="m 489.64287,461.07648 c 23.47109,20.92118 51.97438,-24.00666 72.14285,0 l 0,0.35714"
           id="path3077"
           inkscape:connector-curvature="0"
           sodipodi:nodetypes="ccc" />
      </g>
      <path
         transform="matrix(1.3342925,0,0,1.3342925,-14.8668,-165.10707)"
         inkscape:transform-center-y="2.8694706"
         d="m 151.55017,499.06102 7.44983,0 7.44983,0 -3.72491,6.45174 -3.72492,6.45175 -3.72492,-6.45175 z"
         inkscape:randomized="0"
         inkscape:rounded="0"
         inkscape:flatsided="false"
         sodipodi:arg2="-1.5707963"
         sodipodi:arg1="-2.6179939"
         sodipodi:r2="4.3011627"
         sodipodi:r1="8.6023254"
         sodipodi:cy="503.36218"
         sodipodi:cx="159"
         sodipodi:sides="3"
         id="path3093"
         style="fill:#00ff00;fill-opacity:1;stroke:#000000;stroke-width:1.11192679;stroke-linecap:round;stroke-miterlimit:4;stroke-dasharray:none"
         sodipodi:type="star" />
    </g>
    <g
       id="g3872"
       transform="translate(60,-1.1659977e-6)"
       inkscape:export-filename="C:\Users\Andreas\Documents\Visual Studio 2013\Projects\Battleship\Battleship\images\right.png"
       inkscape:export-xdpi="90"
       inkscape:export-ydpi="90">
      <g
         inkscape:export-ydpi="90"
         inkscape:export-xdpi="90"
         inkscape:export-filename="C:\Users\Andreas\Documents\Visual Studio 2013\Projects\Battleship\Battleship\water.png"
         transform="matrix(0.30864197,0,0,0.30864197,35.088183,375.16045)"
         id="g3874">
        <rect
           style="fill:#87aade;stroke:#000000"
           id="rect3876"
           width="80"
           height="80"
           x="485.71429"
           y="395.93362" />
        <path
           style="fill:none;stroke:#000000;stroke-width:1px;stroke-linecap:butt;stroke-linejoin:miter;stroke-opacity:1"
           d="m 489.64287,413.07648 c 23.47109,20.92118 51.97438,-24.00666 72.14285,0 l 0,0.35714"
           id="path3878"
           inkscape:connector-curvature="0"
           sodipodi:nodetypes="ccc" />
        <path
           sodipodi:nodetypes="ccc"
           inkscape:connector-curvature="0"
           id="path3880"
           d="m 489.64287,429.07648 c 23.47109,20.92118 51.97438,-24.00666 72.14285,0 l 0,0.35714"
           style="fill:none;stroke:#000000;stroke-width:1px;stroke-linecap:butt;stroke-linejoin:miter;stroke-opacity:1" />
        <path
           style="fill:none;stroke:#000000;stroke-width:1px;stroke-linecap:butt;stroke-linejoin:miter;stroke-opacity:1"
           d="m 489.64287,445.07648 c 23.47109,20.92118 51.97438,-24.00666 72.14285,0 l 0,0.35714"
           id="path3882"
           inkscape:connector-curvature="0"
           sodipodi:nodetypes="ccc" />
        <path
           sodipodi:nodetypes="ccc"
           inkscape:connector-curvature="0"
           id="path3884"
           d="m 489.64287,461.07648 c 23.47109,20.92118 51.97438,-24.00666 72.14285,0 l 0,0.35714"
           style="fill:none;stroke:#000000;stroke-width:1px;stroke-linecap:butt;stroke-linejoin:miter;stroke-opacity:1" />
      </g>
      <path
         sodipodi:type="star"
         style="fill:#00ff00;fill-opacity:1;stroke:#000000;stroke-width:1.11192679;stroke-linecap:round;stroke-miterlimit:4;stroke-dasharray:none"
         id="path3886"
         sodipodi:sides="3"
         sodipodi:cx="159"
         sodipodi:cy="503.36218"
         sodipodi:r1="8.6023254"
         sodipodi:r2="4.3011627"
         sodipodi:arg1="-2.6179939"
         sodipodi:arg2="-1.5707963"
         inkscape:flatsided="false"
         inkscape:rounded="0"
         inkscape:randomized="0"
         d="m 151.55017,499.06102 7.44983,0 7.44983,0 -3.72491,6.45174 -3.72492,6.45175 -3.72492,-6.45175 z"
         transform="matrix(0,-1.3342925,1.3342925,0,-477.42446,721.86089)"
         inkscape:transform-center-x="-2.8694721" />
    </g>
    <g
       inkscape:export-ydpi="90"
       inkscape:export-xdpi="90"
       inkscape:export-filename="C:\Users\Andreas\Documents\Visual Studio 2013\Projects\Battleship\Battleship\images\up.png"
       id="g3819"
       transform="translate(30,-1.1659977e-6)">
      <g
         inkscape:export-ydpi="90"
         inkscape:export-xdpi="90"
         inkscape:export-filename="C:\Users\Andreas\Documents\Visual Studio 2013\Projects\Battleship\Battleship\water.png"
         transform="matrix(0.30864197,0,0,0.30864197,35.088183,375.16045)"
         id="g3821">
        <rect
           style="fill:#87aade;stroke:#000000"
           id="rect3823"
           width="80"
           height="80"
           x="485.71429"
           y="395.93362" />
        <path
           style="fill:none;stroke:#000000;stroke-width:1px;stroke-linecap:butt;stroke-linejoin:miter;stroke-opacity:1"
           d="m 489.64287,413.07648 c 23.47109,20.92118 51.97438,-24.00666 72.14285,0 l 0,0.35714"
           id="path3825"
           inkscape:connector-curvature="0"
           sodipodi:nodetypes="ccc" />
        <path
           sodipodi:nodetypes="ccc"
           inkscape:connector-curvature="0"
           id="path3827"
           d="m 489.64287,429.07648 c 23.47109,20.92118 51.97438,-24.00666 72.14285,0 l 0,0.35714"
           style="fill:none;stroke:#000000;stroke-width:1px;stroke-linecap:butt;stroke-linejoin:miter;stroke-opacity:1" />
        <path
           style="fill:none;stroke:#000000;stroke-width:1px;stroke-linecap:butt;stroke-linejoin:miter;stroke-opacity:1"
           d="m 489.64287,445.07648 c 23.47109,20.92118 51.97438,-24.00666 72.14285,0 l 0,0.35714"
           id="path3829"
           inkscape:connector-curvature="0"
           sodipodi:nodetypes="ccc" />
        <path
           sodipodi:nodetypes="ccc"
           inkscape:connector-curvature="0"
           id="path3831"
           d="m 489.64287,461.07648 c 23.47109,20.92118 51.97438,-24.00666 72.14285,0 l 0,0.35714"
           style="fill:none;stroke:#000000;stroke-width:1px;stroke-linecap:butt;stroke-linejoin:miter;stroke-opacity:1" />
      </g>
      <path
         sodipodi:type="star"
         style="fill:#00ff00;fill-opacity:1;stroke:#000000;stroke-width:1.11192679;stroke-linecap:round;stroke-miterlimit:4;stroke-dasharray:none"
         id="path3833"
         sodipodi:sides="3"
         sodipodi:cx="159"
         sodipodi:cy="503.36218"
         sodipodi:r1="8.6023254"
         sodipodi:r2="4.3011627"
         sodipodi:arg1="-2.6179939"
         sodipodi:arg2="-1.5707963"
         inkscape:flatsided="false"
         inkscape:rounded="0"
         inkscape:randomized="0"
         d="m 151.55017,499.06102 7.44983,0 7.44983,0 -3.72491,6.45174 -3.72492,6.45175 -3.72492,-6.45175 z"
         inkscape:transform-center-y="-2.8694384"
         transform="matrix(1.3342925,0,0,-1.3342925,-14.8668,1184.5323)" />
    </g>
    <g
       id="g3864"
       inkscape:export-filename="C:\Users\Andreas\Documents\Visual Studio 2013\Projects\Battleship\Battleship\images\left.png"
       inkscape:export-xdpi="90"
       inkscape:export-ydpi="90">
      <g
         id="g3837"
         transform="matrix(0.30864197,0,0,0.30864197,125.08818,375.16045)"
         inkscape:export-filename="C:\Users\Andreas\Documents\Visual Studio 2013\Projects\Battleship\Battleship\water.png"
         inkscape:export-xdpi="90"
         inkscape:export-ydpi="90">
        <rect
           y="395.93362"
           x="485.71429"
           height="80"
           width="80"
           id="rect3839"
           style="fill:#87aade;stroke:#000000" />
        <path
           sodipodi:nodetypes="ccc"
           inkscape:connector-curvature="0"
           id="path3841"
           d="m 489.64287,413.07648 c 23.47109,20.92118 51.97438,-24.00666 72.14285,0 l 0,0.35714"
           style="fill:none;stroke:#000000;stroke-width:1px;stroke-linecap:butt;stroke-linejoin:miter;stroke-opacity:1" />
        <path
           style="fill:none;stroke:#000000;stroke-width:1px;stroke-linecap:butt;stroke-linejoin:miter;stroke-opacity:1"
           d="m 489.64287,429.07648 c 23.47109,20.92118 51.97438,-24.00666 72.14285,0 l 0,0.35714"
           id="path3843"
           inkscape:connector-curvature="0"
           sodipodi:nodetypes="ccc" />
        <path
           sodipodi:nodetypes="ccc"
           inkscape:connector-curvature="0"
           id="path3845"
           d="m 489.64287,445.07648 c 23.47109,20.92118 51.97438,-24.00666 72.14285,0 l 0,0.35714"
           style="fill:none;stroke:#000000;stroke-width:1px;stroke-linecap:butt;stroke-linejoin:miter;stroke-opacity:1" />
        <path
           style="fill:none;stroke:#000000;stroke-width:1px;stroke-linecap:butt;stroke-linejoin:miter;stroke-opacity:1"
           d="m 489.64287,461.07648 c 23.47109,20.92118 51.97438,-24.00666 72.14285,0 l 0,0.35714"
           id="path3847"
           inkscape:connector-curvature="0"
           sodipodi:nodetypes="ccc" />
      </g>
      <path
         inkscape:transform-center-x="2.8694711"
         transform="matrix(0,-1.3342925,-1.3342925,0,962.12764,721.86089)"
         d="m 151.55017,499.06102 7.44983,0 7.44983,0 -3.72491,6.45174 -3.72492,6.45175 -3.72492,-6.45175 z"
         inkscape:randomized="0"
         inkscape:rounded="0"
         inkscape:flatsided="false"
         sodipodi:arg2="-1.5707963"
         sodipodi:arg1="-2.6179939"
         sodipodi:r2="4.3011627"
         sodipodi:r1="8.6023254"
         sodipodi:cy="503.36218"
         sodipodi:cx="159"
         sodipodi:sides="3"
         id="path3849"
         style="fill:#00ff00;fill-opacity:1;stroke:#000000;stroke-width:1.11192679;stroke-linecap:round;stroke-miterlimit:4;stroke-dasharray:none"
         sodipodi:type="star" />
    </g>
  </g>
</svg>
